<svg xmlns="http://www.w3.org/2000/svg" viewBox="0 0 1126.76 297.14">
  <title>UEM Innovacion</title>
  <g id="Layer_2" data-name="Layer 2">
    <g id="Layer_1-2" data-name="Layer 1">
      <rect x="277.29" y="110.13" width="19.58" height="19.58" style="fill: none"/>
      <rect x="279.97" width="17.87" height="17.87" style="fill: none"/>
      <rect x="425.73" y="195.1" width="25.7" height="25.7" style="fill: none"/>
      <rect x="277.29" y="251.38" width="19.58" height="19.58" style="fill: none"/>
      <path d="M24,234.11c7.76,2.68,9.93,5.19,7.86,11.36s-5.42,23.62,14.08,20.85c0,0,9.06-1.79,25.47-4.2,13.92-2,20.54,12.25,24.48,28.8.09.38.24.74.36,1.1,26.13.47,66.16-1.92,97.47-17.61-5.57-9.54-9.23-19.46-10-29H133.23V231.2H21.14C21.33,232.43,22.15,233.48,24,234.11Z" style="fill: #6741ce"/>
      <path d="M157.87,176.65h92.06v.08h8.53l19.73,26.11h46.9v15.58h50.7V166.86h-50.7v18.69H286.8l-19.73-26.11H214.52a140.64,140.64,0,0,0,2.54-17H110.54V128.81h-88c0,.36.05.71.09,1.07,0,0,1.95,15.92-12.81,36.85-10.32,14.64-13.3,20.38-5.22,23.8H157.87Zm182.78,5.77h19.58V202H340.65Z" style="fill: #dc143c"/>
      <g>
        <path d="M520.8,237.47V201.21c0-10.54-5.76-18.55-16.73-18.55-10.54,0-17.71,8.86-17.71,19.4v35.42h-17V168h15.32l1.12,9.42c7-6.89,14.06-10.4,22.77-10.4,16.31,0,29.38,12.23,29.38,34v36.41Z" style="fill: #efefef"/>
        <path d="M603.73,237.47V201.21c0-10.54-5.76-18.55-16.73-18.55-10.54,0-17.71,8.86-17.71,19.4v35.42h-17V168H567.6l1.12,9.42c7-6.89,14.06-10.4,22.77-10.4,16.31,0,29.38,12.23,29.38,34v36.41Z" style="fill: #efefef"/>
        <path d="M704.51,202.89c0,20-13.63,36.13-36.12,36.13s-36-16.16-36-36.12,13.78-36.12,35.84-36.12S704.51,183.07,704.51,202.89Zm-55,0c0,10.54,6.33,20.38,18.84,20.38s18.84-9.84,18.84-20.38-7.31-20.52-18.84-20.52C656,182.37,649.55,192.49,649.55,202.89Z" style="fill: #efefef"/>
        <path d="M786.74,168l-29.52,69.72H738.67L709,168h18.7l9.56,22.91,10.68,29.24,10.54-29L768,168Z" style="fill: #efefef"/>
        <path d="M850,168.18h16.45v69.3H850.28l-.84-10.12c-3.94,8.15-14.76,12.09-22.49,12.23-20.52.14-35.7-12.51-35.7-36.83,0-23.9,15.88-36.41,36.13-36.27,9.28,0,18.13,4.36,22.07,11.25Zm-41.61,34.58c0,13.21,9.14,21.08,20.52,21.08,27,0,27-42,0-42C817.53,181.81,808.39,189.54,808.39,202.75Z" style="fill: #efefef"/>
        <path d="M941.92,228.62c-8,7.87-16.45,11-26.71,11-20.1,0-36.83-12.09-36.83-36.69s16.73-36.69,36.83-36.69c9.84,0,17.43,2.81,25,10.26l-10.82,11.39a21.05,21.05,0,0,0-13.92-5.48c-11.53,0-20,8.43-20,20.52,0,13.21,9,20.24,19.68,20.24,5.48,0,11-1.55,15.18-5.76Z" style="fill: #efefef"/>
        <path d="M1046.78,202.89c0,20-13.63,36.13-36.12,36.13s-36-16.16-36-36.12,13.78-36.12,35.84-36.12S1046.78,183.07,1046.78,202.89Zm-55,0c0,10.54,6.33,20.38,18.84,20.38s18.84-9.84,18.84-20.38-7.31-20.52-18.84-20.52C998.29,182.37,991.82,192.49,991.82,202.89Z" style="fill: #efefef"/>
        <path d="M1109.61,237.47V201.21c0-10.54-5.76-18.55-16.73-18.55-10.54,0-17.71,8.86-17.71,19.4v35.42h-17V168h15.32l1.12,9.42c7-6.89,14.06-10.4,22.77-10.4,16.31,0,29.38,12.23,29.38,34v36.41Z" style="fill: #efefef"/>
      </g>
      <g>
        <path d="M499,80.8v36.27c0,10.54,5.76,18.56,16.73,18.56,10.54,0,17.71-8.86,17.71-19.4V80.8h17v69.44H535.16L534,140.82c-7.17,7-13.78,10.4-23.48,10.4-16.59,0-28.68-12.51-28.68-34V80.8Z" style="fill: #efefef"/>
        <path d="M580.28,121.56c1.12,8.58,8.58,14.76,20.66,14.76,6.33,0,14.62-2.39,18.55-6.47l11,10.82c-7.31,7.59-19.26,11.25-29.8,11.25-23.9,0-38.09-14.76-38.09-37,0-21.09,14.34-36.27,36.83-36.27,23.19,0,37.67,14.34,35,42.87Zm37.67-14.2c-1.12-9-8.15-13.49-18-13.49-9.28,0-16.87,4.5-19.4,13.49Z" style="fill: #efefef"/>
        <path d="M692.31,150.1V113c0-9.14-4.78-17.43-14.2-17.43s-14.76,8.29-14.76,17.43V150.1H646.2V80.66h15.88l1.27,8.43c3.66-7,11.67-9.56,18.27-9.56,8.29,0,16.59,3.37,20.52,12.93,6.19-9.84,14.2-12.65,23.19-12.65,19.68,0,29.38,12.09,29.38,32.89V150.1H737.57V112.71c0-9.14-3.8-16.87-13.07-16.87s-15,8-15,17.15V150.1Z" style="fill: #efefef"/>
      </g>
      <rect x="441.16" y="167.76" width="17.39" height="69.72" style="fill: #efefef"/>
      <rect x="949.73" y="167.76" width="17.39" height="69.72" style="fill: #efefef"/>
      <path d="M287.08,36.25H251.7L222.32,61.49H191.85c-44.34-44.56-132.76-37.73-161,17.65H148v-.46h80.86l29.25-25.14h29Z" style="fill: #f08072"/>
      <rect x="282.71" y="36.25" width="216.32" height="17.47" style="fill: #f08072"/>
      <rect x="467.1" y="51.22" width="46.72" height="17.15" transform="translate(430.66 550.25) rotate(-90)" style="fill: #f08072"/>
      <path d="M255.84,252.52h-12L206.76,214H191.62c3.53-7.61,7.72-14.91,11.71-23.06H157.87v-.38H4.62a25.62,25.62,0,0,0,2.85,1c11.46,3.31,14.87,9.31,12,15.66s-2.92,10.91,3.74,12.35l3.22,1.88s-6,5.84-5.34,9.8H133.23v-.1h66.13v.15h0l37.13,38.55h19.31Z" style="fill: #00fa9a"/>
      <rect x="250.69" y="252.52" width="205.75" height="17.29" style="fill: #00fa9a"/>
      <rect x="433.69" y="244.95" width="32.34" height="17.39" transform="translate(196.22 703.5) rotate(-90)" style="fill: #00fa9a"/>
      <path d="M769.09,63.62V23.68h-42V35.89H713.55V50h13.58V63.62ZM756.21,50.93H740V35h16.2Z" style="fill: #1e90ff"/>
      <rect x="678.11" y="11.22" width="14.55" height="63" transform="translate(728.1 -642.66) rotate(90)" style="fill: #1e90ff"/>
      <polygon points="661.86 80.73 659.95 35.45 646.2 35.45 646.2 80.73 661.86 80.73" style="fill: #1e90ff"/>
      <path d="M935.55,257.25v13.61H922.19v14.08h13.36v12.2h41.3V257.25Zm28.62,28.62H948.23V269.92h15.95Z" style="fill: #ff1493"/>
      <path d="M418.61,95.44v16.7h-16.4v17.29h16.4v15h50.7v-49Zm35.14,35.14H434.17V111h19.58Z" style="fill: gold"/>
      <rect x="887.41" y="246.89" width="14.08" height="62.01" transform="translate(616.56 1172.35) rotate(-90)" style="fill: #ff1493"/>
      <polygon points="850.41 237.47 850.27 237.47 852.36 284.94 850.41 237.47" style="fill: #ff1493"/>
      <polygon points="850.41 237.47 850.27 237.47 852.36 284.94 866.38 284.94 866.38 237.47 850.41 237.47" style="fill: #ff1493"/>
      <rect x="257.41" y="50.62" width="28.86" height="3.1" style="fill: #f08072"/>
      <rect x="716.54" y="35.45" width="11.35" height="1.81" style="fill: #1e90ff"/>
      <path d="M243.84,128.19V110.9H216.4a95.71,95.71,0,0,0-4.62-18H148V79.14H30.88c-6.94,13.63-10.23,30.2-8.32,49.67h88v-.64H219.89v0Z" style="fill: gold"/>
      <rect x="295.03" y="110.9" width="113.28" height="18.52" style="fill: gold"/>
      <rect x="238.18" y="110.9" width="68.32" height="18.52" style="fill: gold"/>
      <circle cx="295.03" cy="139.84" style="fill: gold"/>
      <rect x="408.31" y="110.9" width="11.29" height="4.75" style="fill: gold"/>
      <rect x="110.53" y="126.47" width="127.65" height="2.89" style="fill: gold"/>
      <path d="M228.86,78.67" style="fill: #f08072"/>
    </g>
  </g>
</svg>
